<?xml version="1.0" encoding="utf-8" ?>
<svg baseProfile="full" height="200mm" version="1.1" viewBox="0,0,200,200" width="200mm" xmlns="http://www.w3.org/2000/svg" xmlns:ev="http://www.w3.org/2001/xml-events" xmlns:xlink="http://www.w3.org/1999/xlink"><defs /><rect fill="#1a1a1a" height="200" width="200" x="0" y="0" /><text alignment-baseline="middle" fill="#e1ed5e" style="dominant-baseline: central; font-size:9.0px; font-family:Arial;" text-anchor="middle" x="100.0" y="100.0">2023</text><line stroke="#e1ed5e" stroke-width="0.3" x1="100.0" x2="100.0" y1="15.0" y2="10.0" /><path d="M 100.0 14.0 a86.0,86.0 0 0,1 42.46469731375804,11.215312516191453" fill="none" id="id25" stroke="none" /><text fill="#e1ed5e" style="font-size:6.75px; font-family:Arial;" text-anchor="middle"><textPath startOffset="22.20632615414155" xlink:href="#id25">January</textPath></text><line stroke="#e1ed5e" stroke-width="0.3" x1="143.23703022742887" x2="145.7803849466894" y1="26.81831364943548" y2="22.513508569990506" /><path d="M 143.74570117128098 25.957352633546492 a86.0,86.0 0 0,1 28.547481713284135,27.462654790039103" fill="none" id="id26" stroke="none" /><text fill="#e1ed5e" style="font-size:6.75px; font-family:Arial;" text-anchor="middle"><textPath startOffset="19.985693538727396" xlink:href="#id26">February</textPath></text><line stroke="#e1ed5e" stroke-width="0.3" x1="172.23445277983987" x2="176.4835382374775" y1="55.19839476539836" y2="52.563006222186495" /><path d="M 173.08426987136738 54.67131705675599 a86.0,86.0 0 0,1 12.851231095245387,41.99856678651699" fill="none" id="id27" stroke="none" /><text fill="#e1ed5e" style="font-size:6.75px; font-family:Arial;" text-anchor="middle"><textPath startOffset="22.20632615414155" xlink:href="#id27">March</textPath></text><path d="M 118.56541770881063 90.18545643968196 l 10.567359345003918 -5.586397798087528 a32.953113564461724,32.953113564461724 0 0,0 0.2607855534484263,0.5037546828878501 l -10.661954331612462 5.4036703929393335" fill="#ff0000" stroke="none" /><path d="M 119.04729006885535 91.15688171328212 l 14.565610662817884 -6.762401241538837 a37.05886311456574,37.05886311456574 0 0,0 0.2636432516804097,0.5809029578404632 l -14.67985623146164 6.51067627485631" fill="#ff4706" stroke="none" /><line stroke="#e1ed5e" stroke-width="0.3" x1="184.98032266829074" x2="189.97916517819016" y1="98.17113171792111" y2="98.06355123074" /><path d="M 185.9800911702706 98.14961562048488 a86.0,86.0 0 0,1 -9.607161424134198,41.387399972396054" fill="none" id="id28" stroke="none" /><text fill="#e1ed5e" style="font-size:6.75px; font-family:Arial;" text-anchor="middle"><textPath startOffset="21.466115282336823" xlink:href="#id28">April</textPath></text><path d="M 120.9904718944345 100.63252640178507 l 57.208114879272465 1.7239080302471694 a78.23408308811094,78.23408308811094 0 0,0 -0.05214810959882418,1.3457109938296388 l -57.169964636822435 -2.7083962710908143" fill="#44ffea" stroke="none" /><path d="M 120.8583938346157 102.4346265915055 l 38.21250479268544 4.460227428533341 a59.471926794030594,59.471926794030594 0 0,0 -0.1274355689482529,1.0157868694923116 l -38.130067714490345 -5.117332052313047" fill="#6bff28" stroke="none" /><path d="M 120.81339534386255 102.79330883721812 l 47.666109213655695 6.397138088359539 a69.09346466298402,69.09346466298402 0 0,0 -0.16834441371583325,1.1774004374385911 l -47.54893074892326 -7.21668399777854" fill="#37ff73" stroke="none" /><path d="M 120.32669344350535 105.2749913415812 l 57.73389076495736 14.982553593745063 a80.64628282675687,80.64628282675687 0 0,0 -0.3602658537077694,1.3406832638338049 l -57.467436834907815 -15.974127790754416" fill="#48f8ff" stroke="none" /><path d="M 120.13307415673323 105.97154293290107 l 23.158570265425187 6.868916069548317 a45.155773320453534,45.155773320453534 0 0,0 -0.2274415182898017,0.7432920414492487 l -23.036901974629256 -7.2665350835496225" fill="#ffca12" stroke="none" /><path d="M 120.02730092923936 106.31721596034902 l 33.4099418944073 10.538505359029383 a56.032617838094296,56.032617838094296 0 0,0 -0.29806083849335235,0.9173369357076492 l -33.223588804897695 -11.112041194714827" fill="#97ff23" stroke="none" /><path d="M 119.79798401119884 107.00284435728193 l 22.66012868944733 8.015227926157394 a45.0359171019241,45.0359171019241 0 0,0 -0.26480205454606787,0.7286215261537128 l -22.518802373896037 -8.404097249317237" fill="#ffc912" stroke="none" /><line stroke="#e1ed5e" stroke-width="0.3" x1="174.80103733775053" x2="179.2010983576182" y1="140.37084112569926" y2="142.7455964860345" /><path d="M 175.68104954172406 140.8457921977663 a86.0,86.0 0 0,1 -30.038265399797805,32.042727171017184" fill="none" id="id29" stroke="none" /><text fill="#e1ed5e" style="font-size:6.75px; font-family:Arial;" text-anchor="middle"><textPath startOffset="22.206326154141568" xlink:href="#id29">May</textPath></text><path d="M 117.14729908036423 112.12312394758627 l 18.255393234788972 12.906545448356031 a43.35706370629334,43.35706370629334 0 0,0 -0.436089904667976,0.6056907360828996 l -18.030523537745395 -13.218869789890062" fill="#ffae10" stroke="none" /><path d="M 116.93607887273984 112.41649034213515 l 26.023202194698403 19.07860970357127 a53.26763704840129,53.26763704840129 0 0,0 -0.5485012553091372,0.734807066280681 l -25.69093967269417 -19.523729649361268" fill="#bdff1f" stroke="none" /><path d="M 116.71984013943494 112.70617746262583 l 20.324115643420182 15.445232608842042 a46.52694433394554,46.52694433394554 0 0,0 -0.4900687096353891,0.6334798691306068 l -20.055240116566726 -15.792790472085901" fill="#ffdf14" stroke="none" /><path d="M 116.0416608686014 113.55231037782055 l 17.99867082808495 15.205630853839285 a44.56190487292964,44.56190487292964 0 0,0 -0.5000641271952516,0.5816875538407388 l -17.73426419131892 -15.513195506841551" fill="#ffc112" stroke="none" /><path d="M 115.07121518719521 114.62390073753431 l 44.49085414222357 43.17036328011445 a82.9928735262503,82.9928735262503 0 0,0 -1.0036580135986437,1.0167002688803966 l -43.74115550356939 -43.92980404297551" fill="#4bddff" stroke="none" /><path d="M 114.81725581225074 114.88116024355365 l 44.45176743675221 44.643480730660954 a84.0,84.0 0 0,0 -1.033400190496823,1.011399588309712 l -43.67671729387959 -45.40203042189324" fill="#4dd2ff" stroke="none" /><line stroke="#e1ed5e" stroke-width="0.3" x1="143.8653032363475" x2="146.44561519142675" y1="172.8068346515853" y2="177.08958963109032" /><path d="M 144.38136562736335 173.6633856474863 a86.0,86.0 0 0,1 -40.68145358897372,12.25698825130547" fill="none" id="id30" stroke="none" /><text fill="#e1ed5e" style="font-size:6.75px; font-family:Arial;" text-anchor="middle"><textPath startOffset="21.466115282336833" xlink:href="#id30">June</textPath></text><line stroke="#e1ed5e" stroke-width="0.3" x1="102.19456741930631" x2="102.32365962044197" y1="184.97166512339345" y2="189.96999836594603" /><path d="M 102.22038585953345 185.97133177190398 a86.0,86.0 0 0,1 -42.740103519485714,-10.115201625700543" fill="none" id="id31" stroke="none" /><text fill="#e1ed5e" style="font-size:6.75px; font-family:Arial;" text-anchor="middle"><textPath startOffset="22.20632615414155" xlink:href="#id31">July</textPath></text><line stroke="#e1ed5e" stroke-width="0.3" x1="58.666819895761336" x2="56.23545636021788" y1="174.27360380694188" y2="178.64263932499728" /><path d="M 58.180547188652646 175.14741091055294 a86.0,86.0 0 0,1 -31.652253787137756,-30.449443065178592" fill="none" id="id32" stroke="none" /><text fill="#e1ed5e" style="font-size:6.75px; font-family:Arial;" text-anchor="middle"><textPath startOffset="22.20632615414155" xlink:href="#id32">August</textPath></text><line stroke="#e1ed5e" stroke-width="0.3" x1="26.63291911575756" x2="22.317208475507996" y1="142.92168965132927" y2="145.44649492493687" /><path d="M 25.769776987707644 143.4266507060508 a86.0,86.0 0 0,1 -11.730757126820373,-40.83630448921669" fill="none" id="id33" stroke="none" /><text fill="#e1ed5e" style="font-size:6.75px; font-family:Arial;" text-anchor="middle"><textPath startOffset="21.46611528233685" xlink:href="#id33">September</textPath></text><line stroke="#e1ed5e" stroke-width="0.3" x1="15.007084014347285" x2="10.007500721073583" y1="101.09737516637583" y2="101.16192664675087" /><path d="M 14.007167355692545 101.11028546245083 a86.0,86.0 0 0,1 10.666146001902534,-42.60595125391555" fill="none" id="id34" stroke="none" /><text fill="#e1ed5e" style="font-size:6.75px; font-family:Arial;" text-anchor="middle"><textPath startOffset="22.20632615414155" xlink:href="#id34">October</textPath></text><line stroke="#e1ed5e" stroke-width="0.3" x1="26.266209847984243" x2="21.928928074336255" y1="57.711370442889674" y2="55.22380399835377" /><path d="M 25.398753493254645 57.213857153982495 a86.0,86.0 0 0,1 29.58750427330803,-30.492523968695096" fill="none" id="id35" stroke="none" /><text fill="#e1ed5e" style="font-size:6.75px; font-family:Arial;" text-anchor="middle"><textPath startOffset="21.46611528233685" xlink:href="#id35">November</textPath></text><line stroke="#e1ed5e" stroke-width="0.3" x1="56.762969772571076" x2="54.21961505331055" y1="26.818313649435495" y2="22.513508569990535" /><path d="M 56.25429882871897 25.957352633546506 a86.0,86.0 0 0,1 42.265352541879196,-11.944610805530505" fill="none" id="id36" stroke="none" /><text fill="#e1ed5e" style="font-size:6.75px; font-family:Arial;" text-anchor="middle"><textPath startOffset="22.20632615414155" xlink:href="#id36">December</textPath></text></svg>